<svg width="84" height="42" viewBox="0 0 84 42" fill="none" xmlns="http://www.w3.org/2000/svg">
<g clipPath="url(#clip0_833_5186)">
<path d="M81.3971 29.9202C81.5504 30.022 81.7328 30.072 81.9171 30.0628C82.1015 30.0536 82.2779 29.9856 82.42 29.8691L83.7539 28.5466C83.8995 28.418 83.9876 28.2373 83.9988 28.0444C84.01 27.8515 83.9434 27.662 83.8135 27.5177C83.7947 27.497 83.7748 27.4773 83.7539 27.4587L82.8948 26.5895C82.4276 26.064 82.1785 25.383 82.1974 24.6832V11.4419C82.2045 11.2816 82.1788 11.1217 82.1218 10.9716C82.0647 10.8215 81.9775 10.6844 81.8655 10.5685C81.7532 10.4524 81.6184 10.3598 81.4693 10.2963C81.3201 10.2328 81.1595 10.1996 80.9971 10.1988H79.8696C79.7069 10.1958 79.5452 10.2251 79.3941 10.2849C79.243 10.3448 79.1055 10.434 78.9899 10.5473C78.8746 10.6602 78.7834 10.7948 78.7218 10.9433C78.6603 11.0918 78.6295 11.251 78.6315 11.4115V24.8728C78.6346 25.875 78.8888 26.8607 79.3715 27.7416C79.8542 28.6226 80.5502 29.3711 81.3971 29.9202ZM74.4796 29.9202C74.631 30.0238 74.8127 30.075 74.9965 30.0658C75.1803 30.0565 75.3559 29.9874 75.4958 29.8691L76.8377 28.5466C76.9093 28.4824 76.9675 28.4048 77.0088 28.3183C77.0502 28.2318 77.0739 28.1381 77.0787 28.0425C77.0834 27.9469 77.0691 27.8513 77.0365 27.7612C77.004 27.6711 76.9538 27.5882 76.8889 27.5173C76.8728 27.4994 76.8557 27.4823 76.8377 27.4662L75.9773 26.5895C75.5099 26.0671 75.2608 25.3882 75.2807 24.6907V11.4706C75.2828 11.31 75.2521 11.1506 75.1904 11.0021C75.1286 10.8536 75.0372 10.719 74.9215 10.6064C74.8059 10.4931 74.6684 10.4039 74.5173 10.344C74.3662 10.2841 74.2045 10.2549 74.0418 10.2579H72.9454C72.7829 10.2549 72.6215 10.2844 72.4708 10.3445C72.3201 10.4046 72.1832 10.494 72.0682 10.6076C71.9533 10.7202 71.8628 10.8548 71.8021 11.0032C71.7414 11.1515 71.7119 11.3105 71.7153 11.4706V24.8948C71.7199 25.8935 71.9749 26.8755 72.4574 27.7525C72.9398 28.6296 73.6347 29.3745 74.4796 29.9202ZM53.3579 16.8619H51.6237C51.3807 16.858 51.1432 16.9341 50.9486 17.0782C50.7541 17.2224 50.6134 17.4264 50.5486 17.6583L48.4132 24.501L46.1892 17.6279C46.1148 17.404 45.9708 17.2092 45.7776 17.0714C45.5845 16.9337 45.3522 16.86 45.1141 16.8611H43.6311C43.3969 16.861 43.1688 16.9356 42.9806 17.0736C42.7924 17.2117 42.654 17.406 42.5859 17.6279L40.3253 24.4786L38.1899 17.6583C38.1264 17.4257 37.986 17.2209 37.7911 17.0765C37.5963 16.9322 37.3582 16.8566 37.1148 16.8619H35.3869C35.2645 16.8544 35.1421 16.8771 35.0307 16.9279C34.9192 16.9787 34.8222 17.0561 34.7484 17.153C34.675 17.2499 34.6271 17.3634 34.6092 17.4832C34.5913 17.6031 34.6039 17.7254 34.6459 17.8392L38.4562 29.3064C38.5275 29.5264 38.6667 29.7187 38.8542 29.8563C39.0417 29.9939 39.2681 30.0698 39.5015 30.0733H41.1332C41.3805 30.0853 41.6246 30.0137 41.8253 29.87C42.026 29.7264 42.1713 29.5194 42.2372 29.2831L44.3726 22.2424L46.5992 29.2831C46.6634 29.5132 46.803 29.7157 46.9961 29.8587C47.1891 30.0017 47.4247 30.0772 47.6658 30.0733H49.2786C49.512 30.0693 49.7382 29.9932 49.9257 29.8557C50.1133 29.7182 50.2528 29.5262 50.3247 29.3064L54.0993 17.8409C54.1413 17.7271 54.1539 17.6047 54.136 17.4849C54.1181 17.3651 54.0703 17.2516 53.9968 17.1547C53.9229 17.0577 53.8259 16.9803 53.7144 16.9295C53.6029 16.8787 53.4804 16.856 53.3579 16.8636M67.7184 16.8636H66.6143C66.2925 16.8624 65.9831 16.9866 65.7529 17.2092C65.5227 17.4319 65.3901 17.7352 65.3838 18.0538C64.3006 17.1133 62.9093 16.5941 61.4685 16.5924C57.9551 16.5924 55.1084 19.6902 55.1084 23.4655C55.1084 27.2408 57.9538 30.3897 61.4685 30.3897C62.9166 30.3855 64.3117 29.8497 65.3838 28.886L66.5106 30.1269H67.7213C67.8834 30.1273 68.0439 30.0953 68.1932 30.0329C68.3425 29.9705 68.4776 29.8789 68.5903 29.7637C68.7031 29.6484 68.7912 29.5118 68.8494 29.3621C68.9076 29.2124 68.9347 29.0525 68.9291 28.8922V18.0812C68.9323 17.9206 68.9027 17.7609 68.8421 17.6118C68.7814 17.4628 68.691 17.3274 68.5762 17.2137C68.4612 17.1 68.3243 17.0102 68.1737 16.9496C68.023 16.889 67.8616 16.8589 67.6991 16.8611M62.0621 27.356C60.2081 27.356 58.7327 25.6405 58.7327 23.5225C58.7327 21.4044 60.2157 19.6877 62.0621 19.6877C63.9084 19.6877 65.3616 21.382 65.3616 23.5212C65.3616 25.6605 63.8786 27.356 62.0621 27.356Z" fill="black"/>
<path d="M29.6348 10.2579H28.5517C28.3892 10.2547 28.2277 10.2837 28.0767 10.3433C27.9257 10.4029 27.7882 10.4917 27.6725 10.6047C27.5569 10.7173 27.4656 10.852 27.404 11.0005C27.3424 11.149 27.3118 11.3083 27.3141 11.4689V18.0442C26.2313 17.1038 24.8405 16.5843 23.4 16.5824C19.8866 16.5986 17.0324 19.6952 17.0324 23.4418C17.0324 27.1884 19.879 30.3452 23.3932 30.3452C24.8422 30.3394 26.2413 29.8211 27.338 28.8839L28.4345 30.0965H29.636C29.7936 30.1005 29.9505 30.0736 30.0976 30.0175C30.2447 29.9614 30.3792 29.8772 30.4934 29.7697C30.6077 29.6621 30.6994 29.5333 30.7633 29.3907C30.8273 29.2481 30.8622 29.0943 30.8661 28.9383C30.8661 28.9205 30.8661 28.903 30.8661 28.8851V11.4705C30.869 11.3101 30.8391 11.1507 30.7782 11.002C30.7173 10.8532 30.6268 10.7182 30.5119 10.6049C30.397 10.4917 30.2602 10.4026 30.1097 10.3429C29.9592 10.2833 29.7981 10.2544 29.636 10.2579M23.9999 27.3285C22.1468 27.3285 20.6718 25.6118 20.6718 23.4938C20.6718 21.3757 22.1543 19.6678 23.9999 19.6678C25.8454 19.6678 27.299 21.3832 27.299 23.4938C27.299 25.6043 25.8164 27.3277 23.9999 27.3277M13.1241 15.5169C13.5367 15.5163 13.9399 15.3946 14.2826 15.1672C14.6254 14.9399 14.8924 14.617 15.0498 14.2395C15.2073 13.862 15.2483 13.4468 15.1675 13.0463C15.0866 12.6457 14.8877 12.2779 14.5958 11.9893C14.3039 11.7006 13.9322 11.5041 13.5275 11.4245C13.1228 11.3449 12.7034 11.3858 12.3222 11.5421C11.941 11.6984 11.6151 11.963 11.3858 12.3025C11.1565 12.642 11.0339 13.0412 11.0337 13.4497C11.0369 13.9973 11.2582 14.5216 11.6496 14.9087C12.041 15.2958 12.5709 15.5143 13.1241 15.5169ZM12.5826 30.0724H13.7102C13.8726 30.0752 14.0339 30.0457 14.1845 29.9857C14.3352 29.9257 14.4722 29.8364 14.5874 29.7231C14.7019 29.6104 14.7922 29.476 14.8529 29.3279C14.9136 29.1799 14.9435 29.0212 14.9407 28.8614V18.08C14.9436 17.9195 14.9138 17.7601 14.8531 17.6112C14.7924 17.4624 14.702 17.3272 14.5874 17.2137C14.4723 17.0999 14.3355 17.0101 14.1848 16.9496C14.0342 16.889 13.8728 16.8589 13.7102 16.861H12.5818C12.4192 16.859 12.2577 16.8892 12.107 16.9497C11.9563 17.0103 11.8194 17.1 11.7042 17.2137C11.5894 17.3273 11.499 17.4628 11.4384 17.6118C11.3777 17.7609 11.3481 17.9205 11.3513 18.0812V28.8614C11.3482 29.0216 11.3779 29.1807 11.4385 29.3292C11.4992 29.4777 11.5895 29.6125 11.7042 29.7256C11.8195 29.8388 11.9566 29.928 12.1073 29.9878C12.2581 30.0477 12.4194 30.077 12.5818 30.0741" fill="#4500BA"/>
<path d="M3.50899 0.596389C2.70623 -0.198271 1.40471 -0.198271 0.601955 0.596389C-0.200801 1.39105 -0.200801 2.67945 0.601955 3.47411L3.50721 6.35006C4.30996 7.14472 5.61149 7.14472 6.41424 6.35006C7.217 5.5554 7.217 4.267 6.41424 3.47234L3.50899 0.596389Z" fill="#4500BA"/>
<path d="M0.602149 38.5267C-0.200607 39.3213 -0.200609 40.6097 0.602147 41.4044C1.4049 42.1991 2.70643 42.1991 3.50918 41.4044L6.41444 38.5284C7.21719 37.7338 7.21719 36.4454 6.41444 35.6507C5.61168 34.8561 4.31016 34.8561 3.5074 35.6507L0.602149 38.5267Z" fill="#4500BA"/>
<path d="M38.7449 41.4041C39.5477 42.1988 40.8492 42.1988 41.6519 41.4041C42.4547 40.6095 42.4547 39.3211 41.6519 38.5264L38.7467 35.6505C37.9439 34.8558 36.6424 34.8558 35.8397 35.6505C35.0369 36.4451 35.0369 37.7335 35.8397 38.5282L38.7449 41.4041Z" fill="#4500BA"/>
<path d="M41.6518 3.47387C42.4545 2.67921 42.4545 1.39081 41.6518 0.596148C40.849 -0.198512 39.5475 -0.198513 38.7447 0.596146L35.8395 3.4721C35.0367 4.26676 35.0367 5.55516 35.8395 6.34982C36.6422 7.14448 37.9438 7.14448 38.7465 6.34982L41.6518 3.47387Z" fill="#4500BA"/>
</g>
<defs>
<clipPath id="clip0_833_5186">
<rect width="84" height="42" fill="white"/>
</clipPath>
</defs>
</svg>
